<svg width="1024" height="1024" viewBox="0 0 1024 1024" fill="none" xmlns="http://www.w3.org/2000/svg">
<path d="M966.582 744.079C966.136 743.127 944.724 735.485 909.912 732.224C872.1 728.685 526.989 725.305 520.343 725.246C520.343 725.246 788.442 846.121 871.376 834.304C952.856 822.694 967.039 745.054 966.582 744.079Z" fill="white"/>
<path d="M975.45 538.695C970.086 540.791 939.088 562.93 921.04 574.739C887.7 596.556 851.924 614.466 815.429 630.19C672.998 691.57 520.321 724.561 520.321 724.561C520.321 724.561 847.792 797.595 945.282 735.249C1042.06 673.332 1022.45 539.396 1022.23 538.87C1021.68 537.565 1000.64 536.433 998.547 536.372C993.54 536.213 981.168 536.457 975.45 538.695Z" fill="white"/>
<path d="M823.997 435.929C872.614 43.2031 649.683 0.00959418 649.673 0C622.573 23.7887 555.792 128.236 724.821 397.983C713.835 381.906 691.991 374.646 691.991 374.646C748.32 434.143 752.051 511.913 711.878 583.817C671.705 655.722 599.935 675.976 520.386 659.476L520.362 725.858C808.969 687.966 823.997 435.929 823.997 435.929Z" fill="white"/>
<path d="M520.333 724.932C520.333 724.932 744.709 715.145 806.646 456.075C806.646 456.075 831.783 357.044 861.448 315.487C861.448 315.487 856.094 327.73 856.673 350.345C856.673 350.345 856.545 305.656 949.906 224.309C949.906 224.309 1086.12 395.495 956.72 577.311C956.73 577.311 871.976 738.097 520.333 724.932Z" fill="white"/>
<path d="M878.82 832.508C869.196 826.258 857.921 821.512 847.923 817.096C835.376 811.544 822.539 806.644 809.62 802.028C778.657 790.96 747.12 781.506 715.476 772.603C683.43 763.59 651.2 755.235 618.874 747.281C594.281 741.231 569.633 735.416 544.928 729.836C536.125 727.848 529.176 727.439 520.352 725.558C520.352 725.558 679.616 873.835 780.144 894.355C867.43 912.173 896.62 849.653 896.678 848.774C896.739 847.9 893.221 844.567 889.333 840.762C886.107 837.674 882.585 834.91 878.82 832.508Z" fill="white"/>
<path d="M57.4179 744.079C57.864 743.127 79.2758 735.485 114.088 732.224C151.9 728.685 497.011 725.305 503.657 725.246C503.657 725.246 235.558 846.121 152.624 834.304C71.144 822.694 56.9614 745.054 57.4179 744.079Z" fill="white"/>
<path d="M48.5501 538.695C53.9139 540.791 84.9115 562.93 102.96 574.739C136.3 596.556 172.076 614.466 208.571 630.19C351.002 691.57 503.679 724.561 503.679 724.561C503.679 724.561 176.208 797.595 78.7178 735.249C-18.0631 673.332 1.55313 539.396 1.77378 538.87C2.32013 537.565 23.36 536.433 25.4535 536.372C30.46 536.213 42.8318 536.457 48.5501 538.695Z" fill="white"/>
<path d="M200.003 435.929C151.386 43.2031 374.317 0.00959418 374.327 0C401.427 23.7887 468.208 128.236 299.179 397.983C310.165 381.906 332.009 374.646 332.009 374.646C275.68 434.143 271.949 511.913 312.122 583.817C352.295 655.722 424.065 675.976 503.614 659.476L503.638 725.858C215.031 687.966 200.003 435.929 200.003 435.929Z" fill="white"/>
<path d="M503.667 724.932C503.667 724.932 279.291 715.145 217.354 456.075C217.354 456.075 192.217 357.044 162.552 315.487C162.552 315.487 167.906 327.73 167.327 350.345C167.327 350.345 167.455 305.656 74.0937 224.309C74.0937 224.309 -62.1242 395.495 67.2802 577.311C67.2697 577.311 152.024 738.097 503.667 724.932Z" fill="white"/>
<path d="M145.18 832.508C154.804 826.258 166.079 821.512 176.077 817.095C188.624 811.544 201.461 806.644 214.38 802.028C245.343 790.96 276.88 781.506 308.524 772.603C340.57 763.59 372.8 755.235 405.126 747.281C429.719 741.231 454.367 735.416 479.072 729.836C487.875 727.848 494.824 727.439 503.648 725.558C503.648 725.558 345.478 876.764 244.951 897.284C157.666 915.101 127.38 849.653 127.322 848.774C127.261 847.9 130.779 844.567 134.667 840.762C137.893 837.674 141.415 834.91 145.18 832.508Z" fill="white"/>
<path d="M402.335 447.696C402.396 447.68 412.402 468.785 475.441 439.211C501.253 427.099 513.484 432.602 514.451 458.086C512.276 496.087 462.177 534.453 462.177 534.453C462.177 534.453 361.074 610.127 353.171 666.46C347.594 706.097 348.024 746.181 344.339 785.951C341.181 819.965 328.424 852.975 299.861 873.691C298.905 874.433 297.925 875.174 296.916 875.862C296.677 876.046 296.438 876.205 296.146 876.394C296.069 876.471 295.979 876.532 295.881 876.577C290.511 880.183 284.86 883.351 278.984 886.051C219.5 912.377 149.996 875.286 145.195 872.825C346.811 1072.6 676.626 1077.45 883.422 867.622C883.422 867.622 862.927 879.933 842.081 886.362C836.988 887.924 831.844 889.141 826.99 889.75L826.83 889.776C779.594 898.296 714.544 892.412 677.572 799.381C677.572 799.381 636.249 728.961 650.305 632.156C664.36 535.352 642.402 493.084 642.402 493.084C642.402 493.084 632.438 469.138 608.108 444.691C586.647 423.126 518.387 376.176 581.529 294.566C581.529 294.566 521.698 292.698 464.952 364.226C464.91 364.136 412.15 432.167 341.68 436.288C349.873 447.608 366.605 457.14 402.335 447.696Z" fill="white"/>
<path d="M668.843 999.637C620.579 1014.69 570.74 1023.71 520.19 1023.99C466.222 1024.31 407.877 1015.57 356.899 1000.08C356.899 1000.08 371.669 992.109 385.08 982.009C412.909 961.045 433.814 932.635 441.249 897.507C449.08 860.549 447.227 821.634 440.535 784.652C429.634 724.452 421.46 670.713 456.115 615.703C465.032 601.512 476.405 589.839 486.459 576.656C505.534 551.692 519.502 521.194 530.084 491.782C536.115 474.999 548.389 439.183 524.739 429.784C516.881 426.635 504.474 427.658 496.803 431.346C577.265 392.326 598.838 483.709 598.838 483.709C615.717 536.099 602.991 594.471 580.929 643.313C557.561 695.041 563.124 753.441 571.749 807.976C576.617 838.737 583.309 869.868 593.548 899.333C605.822 936.236 626.325 963.237 646.799 982.484C653.847 989.117 660.951 994.036 668.843 999.637Z" fill="white"/>
</svg>
